<?xml version="1.0" encoding="UTF-8"?>
<svg id="Layer_1" data-name="Layer 1" xmlns="http://www.w3.org/2000/svg" viewBox="0 0 170.57 132.6">
  <defs>
    <style>
      .cls-1 {
        font-family: Roboto-Bold, Roboto;
        font-size: 25.95px;
        font-weight: 700;
      }

      .cls-2 {
        fill: #848484;
      }

      .cls-3 {
        fill: #fff;
      }
    </style>
  </defs>
  <rect class="cls-3" width="170.57" height="132.6" rx="24.95" ry="24.95"/>
  <g>
    <path d="M26.29,103.12c0-.78.15-1.51.44-2.19.29-.68.69-1.27,1.19-1.77.5-.5,1.09-.9,1.76-1.19.67-.29,1.38-.44,2.13-.44h.17c.86-.06,1.6-.39,2.21-1,.61-.61.92-1.36.92-2.26v-52.72c0-.78.15-1.51.46-2.19.31-.68.71-1.28,1.21-1.8.5-.52,1.09-.92,1.78-1.21.68-.29,1.4-.44,2.15-.44s1.5.15,2.17.44c.67.29,1.25.7,1.75,1.21.5.52.89,1.11,1.17,1.8.28.68.42,1.41.42,2.19v52.72c0,2.01-.38,3.88-1.13,5.63-.75,1.75-1.78,3.27-3.07,4.58s-2.81,2.33-4.55,3.08c-1.74.75-3.6,1.12-5.58,1.12h-.08c-.75,0-1.46-.15-2.13-.44-.67-.29-1.25-.69-1.76-1.21-.5-.51-.9-1.11-1.19-1.79-.29-.68-.44-1.4-.44-2.14ZM34.86,26.64c0-.84.16-1.61.48-2.32.32-.71.75-1.34,1.3-1.88.54-.54,1.18-.97,1.9-1.27.72-.31,1.49-.46,2.3-.46s1.57.15,2.28.46c.71.31,1.32.73,1.84,1.27.52.54.93,1.17,1.23,1.88s.46,1.48.46,2.32-.16,1.57-.48,2.3c-.32.72-.75,1.36-1.3,1.9-.54.54-1.18.98-1.92,1.3-.74.32-1.51.48-2.32.48s-1.57-.16-2.28-.48c-.71-.32-1.32-.75-1.84-1.3-.52-.54-.92-1.18-1.21-1.9-.29-.72-.44-1.49-.44-2.3Z"/>
    <path d="M91.8,48.33c-1.08-2.48-2.53-4.64-4.37-6.5-1.84-1.85-4-3.31-6.48-4.38-2.48-1.08-5.12-1.61-7.94-1.61s-5.45.53-7.92,1.61c-2.46,1.07-4.62,2.53-6.47,4.38s-3.32,4.02-4.39,6.5c-1.07,2.48-1.61,5.13-1.61,7.94s.54,5.46,1.61,7.92c1.07,2.47,2.53,4.62,4.39,6.46,1.85,1.84,4.01,3.29,6.47,4.36,2.47,1.08,5.11,1.61,7.92,1.61v-11.15h-.02c-1.25,0-2.44-.24-3.56-.72-1.11-.47-2.1-1.12-2.95-1.96-.85-.84-1.52-1.81-2.01-2.92-.49-1.12-.73-2.32-.73-3.6s.24-2.48.73-3.59c.49-1.12,1.16-2.09,2.01-2.93.85-.83,1.84-1.49,2.95-1.96,1.12-.47,2.31-.71,3.56-.71s2.49.24,3.62.71c1.14.47,2.12,1.13,2.96,1.96.84.84,1.5,1.81,1.99,2.93.49,1.11.73,2.31.73,3.59h11.12c0-2.81-.54-5.46-1.61-7.94Z"/>
    <path class="cls-2" d="M93.41,56.27c0,2.82-.54,5.46-1.61,7.92-.8,1.83-1.8,3.48-3.01,4.96-.43.52-.88,1.02-1.36,1.5-.42.42-.85.82-1.31,1.19-1.53,1.29-3.25,2.34-5.17,3.17-2.48,1.08-5.12,1.61-7.94,1.61v-11.15c1.28,0,2.48-.24,3.6-.72,1.14-.47,2.12-1.12,2.96-1.96s1.5-1.81,1.99-2.92c.49-1.12.73-2.32.73-3.6h11.12Z"/>
    <path d="M129.63,56.27c0,1.28-.24,2.48-.73,3.59-.49,1.12-1.15,2.09-1.98,2.93-.84.83-1.81,1.49-2.93,1.96-1.11.47-2.31.71-3.59.71s-2.45-.24-3.58-.71c-1.12-.47-2.11-1.13-2.96-1.96-.85-.84-1.52-1.81-2.01-2.93-.49-1.11-.73-2.31-.73-3.59s.24-2.48.73-3.6c.49-1.11,1.16-2.09,2.01-2.92.85-.84,1.84-1.49,2.96-1.97,1.12-.47,2.29-.7,3.54-.71v-11.24c-.83,0-1.68.1-2.57.3-.91.19-1.79.46-2.64.79-.85.33-1.63.72-2.34,1.17-.71.45-1.29.93-1.73,1.46v-12.83c0-.8-.14-1.56-.42-2.27-.28-.71-.66-1.33-1.15-1.84-.49-.52-1.07-.92-1.75-1.21-.69-.3-1.42-.44-2.2-.44s-1.51.14-2.19.44c-.68.29-1.28.69-1.78,1.21-.5.51-.9,1.13-1.19,1.84-.29.71-.44,1.47-.44,2.27v29.55c0,2.81.54,5.45,1.61,7.92,1.07,2.46,2.54,4.61,4.41,6.45,1.87,1.84,4.03,3.3,6.5,4.37,2.46,1.07,5.1,1.61,7.92,1.61s5.42-.54,7.9-1.61c2.47-1.07,4.63-2.53,6.47-4.37,1.84-1.84,3.3-3.99,4.37-6.45,1.07-2.47,1.61-5.11,1.61-7.92h-11.12Z"/>
    <path class="cls-2" d="M140.75,56.27h-11.12c0-1.28-.24-2.48-.73-3.6-.49-1.11-1.15-2.09-1.98-2.92-.84-.84-1.81-1.49-2.93-1.97-1.11-.47-2.31-.71-3.59-.71h-.04v-11.24h.04c2.78,0,5.42.54,7.9,1.61,1.81.79,3.45,1.78,4.92,2.99.54.44,1.06.9,1.55,1.4.42.42.81.85,1.19,1.31,1.29,1.54,2.35,3.27,3.18,5.19,1.07,2.48,1.61,5.12,1.61,7.94Z"/>
    <rect x="99.96" y="16.87" width="11.16" height="12.36"/>
    <rect x="23.76" y="97.54" width="8.04" height="11.16"/>
    <rect class="cls-2" x="35.11" y="35.84" width="11.12" height="20.39"/>
    <circle class="cls-2" cx="140.92" cy="34.1" r="5.89"/>
    <circle class="cls-2" cx="93.91" cy="77.7" r="5.89"/>
    <circle class="cls-2" cx="40.75" cy="26.66" r="5.89"/>
    <path d="M135.96,43.14l-2.02.07-3.29,5.4-2.98.08.08-2.98,5.4-3.28.07-2c.54.44,1.06.9,1.55,1.4.42.42.81.85,1.19,1.31Z"/>
    <path d="M88.79,69.15c-.43.52-.88,1.02-1.36,1.5-.42.42-.85.82-1.31,1.19l-.07-1.98-5.4-3.29-.08-2.97,2.98.07,3.28,5.41,1.96.07Z"/>
    <polygon points="38.7 35.92 40.2 37.53 38.7 43.68 40.75 45.84 42.8 43.68 41.3 37.53 42.8 35.92 38.7 35.92"/>
    <text class="cls-1" transform="translate(52.62 108.69)"><tspan x="0" y="0">FINDER</tspan></text>
  </g>
</svg>